<svg xmlns="http://www.w3.org/2000/svg" xmlns:xlink="http://www.w3.org/1999/xlink" id="body_1" preserveAspectRatio="xMinYMin meet" viewBox="0 0 816 1056"><defs><clipPath id="1"><path id="" clip-rule="evenodd" transform="matrix(1 0 0 1 0 0)" d="M0 792L0 0L0 0L612 0L612 0L612 792L612 792L0 792z" /></clipPath><clipPath id="2"><path id="" clip-rule="evenodd" transform="matrix(1 0 0 1 0 0)" d="M72.85 150.9L539.9 150.9L539.9 150.9L539.9 72.82501L539.9 72.82501L72.85 72.82501z" /></clipPath><clipPath id="3"><path id="" clip-rule="evenodd" transform="matrix(1 0 0 1 0 0)" d="M72.85 150.9L539.9 150.9L539.9 150.9L539.9 72.82501L539.9 72.82501L72.85 72.82501z" /></clipPath><clipPath id="4"><path id="" clip-rule="evenodd" transform="matrix(1 0 0 1 0 0)" d="M72.85 150.9L539.9 150.9L539.9 150.9L539.9 72.82501L539.9 72.82501L72.85 72.82501z" /></clipPath><clipPath id="5"><path id="" clip-rule="evenodd" transform="matrix(1 0 0 1 0 0)" d="M72.85 150.9L539.9 150.9L539.9 150.9L539.9 72.82501L539.9 72.82501L72.85 72.82501z" /></clipPath><clipPath id="6"><path id="" clip-rule="evenodd" transform="matrix(1 0 0 1 0 0)" d="M72.85 150.9L539.9 150.9L539.9 150.9L539.9 72.82501L539.9 72.82501L72.85 72.82501z" /></clipPath><clipPath id="7"><path id="" clip-rule="evenodd" transform="matrix(1 0 0 1 0 0)" d="M72.85 150.9L539.9 150.9L539.9 150.9L539.9 72.82501L539.9 72.82501L72.85 72.82501z" /></clipPath><clipPath id="8"><path id="" clip-rule="evenodd" transform="matrix(1 0 0 1 0 0)" d="M72.85 150.9L539.9 150.9L539.9 150.9L539.9 72.82501L539.9 72.82501L72.85 72.82501z" /></clipPath><clipPath id="9"><path id="" clip-rule="evenodd" transform="matrix(1 0 0 1 0 0)" d="M72.85 150.9L539.9 150.9L539.9 150.9L539.9 72.82501L539.9 72.82501L72.85 72.82501z" /></clipPath><clipPath id="10"><path id="" clip-rule="evenodd" transform="matrix(1 0 0 1 0 0)" d="M72.85 177.93L249.3 177.93L249.3 177.93L249.3 151.655L249.3 151.655L72.85 151.655z" /></clipPath><clipPath id="11"><path id="" clip-rule="evenodd" transform="matrix(1 0 0 1 0 0)" d="M72.85 177.93L249.3 177.93L249.3 177.93L249.3 151.655L249.3 151.655L72.85 151.655z" /></clipPath><clipPath id="12"><path id="" clip-rule="evenodd" transform="matrix(1 0 0 1 0 0)" d="M72.85 177.93L249.3 177.93L249.3 177.93L249.3 151.655L249.3 151.655L72.85 151.655z" /></clipPath><clipPath id="13"><path id="" clip-rule="evenodd" transform="matrix(1 0 0 1 0 0)" d="M72.85 177.93L249.3 177.93L249.3 177.93L249.3 151.655L249.3 151.655L72.85 151.655z" /></clipPath><clipPath id="14"><path id="" clip-rule="evenodd" transform="matrix(1 0 0 1 0 0)" d="M72.85 177.93L249.3 177.93L249.3 177.93L249.3 151.655L249.3 151.655L72.85 151.655z" /></clipPath><clipPath id="15"><path id="" clip-rule="evenodd" transform="matrix(1 0 0 1 0 0)" d="M250.05 177.93L539.9 177.93L539.9 177.93L539.9 151.655L539.9 151.655L250.05 151.655z" /></clipPath><clipPath id="16"><path id="" clip-rule="evenodd" transform="matrix(1 0 0 1 0 0)" d="M250.05 177.93L539.9 177.93L539.9 177.93L539.9 151.655L539.9 151.655L250.05 151.655z" /></clipPath><clipPath id="17"><path id="" clip-rule="evenodd" transform="matrix(1 0 0 1 0 0)" d="M250.05 177.93L539.9 177.93L539.9 177.93L539.9 151.655L539.9 151.655L250.05 151.655z" /></clipPath><clipPath id="18"><path id="" clip-rule="evenodd" transform="matrix(1 0 0 1 0 0)" d="M250.05 177.93L539.9 177.93L539.9 177.93L539.9 151.655L539.9 151.655L250.05 151.655z" /></clipPath><clipPath id="19"><path id="" clip-rule="evenodd" transform="matrix(1 0 0 1 0 0)" d="M72.85 205.7L249.3 205.7L249.3 205.7L249.3 178.675L249.3 178.675L72.85 178.675z" /></clipPath><clipPath id="20"><path id="" clip-rule="evenodd" transform="matrix(1 0 0 1 0 0)" d="M72.85 205.7L249.3 205.7L249.3 205.7L249.3 178.675L249.3 178.675L72.85 178.675z" /></clipPath><clipPath id="21"><path id="" clip-rule="evenodd" transform="matrix(1 0 0 1 0 0)" d="M72.85 205.7L249.3 205.7L249.3 205.7L249.3 178.675L249.3 178.675L72.85 178.675z" /></clipPath><clipPath id="22"><path id="" clip-rule="evenodd" transform="matrix(1 0 0 1 0 0)" d="M72.85 205.7L249.3 205.7L249.3 205.7L249.3 178.675L249.3 178.675L72.85 178.675z" /></clipPath><clipPath id="23"><path id="" clip-rule="evenodd" transform="matrix(1 0 0 1 0 0)" d="M250.05 205.7L397.97 205.7L397.97 205.7L397.97 178.675L397.97 178.675L250.05 178.675z" /></clipPath><clipPath id="24"><path id="" clip-rule="evenodd" transform="matrix(1 0 0 1 0 0)" d="M250.05 205.7L397.98 205.7L397.98 205.7L397.98 178.675L397.98 178.675L250.05 178.675z" /></clipPath><clipPath id="25"><path id="" clip-rule="evenodd" transform="matrix(1 0 0 1 0 0)" d="M250.05 205.7L397.98 205.7L397.98 205.7L397.98 178.675L397.98 178.675L250.05 178.675z" /></clipPath><clipPath id="26"><path id="" clip-rule="evenodd" transform="matrix(1 0 0 1 0 0)" d="M250.05 205.7L397.98 205.7L397.98 205.7L397.98 178.675L397.98 178.675L250.05 178.675z" /></clipPath><clipPath id="27"><path id="" clip-rule="evenodd" transform="matrix(1 0 0 1 0 0)" d="M398.75 205.7L459.575 205.7L459.575 205.7L459.575 178.675L459.575 178.675L398.75 178.675z" /></clipPath><clipPath id="28"><path id="" clip-rule="evenodd" transform="matrix(1 0 0 1 0 0)" d="M398.75 205.7L459.575 205.7L459.575 205.7L459.575 178.675L459.575 178.675L398.75 178.675z" /></clipPath><clipPath id="29"><path id="" clip-rule="evenodd" transform="matrix(1 0 0 1 0 0)" d="M398.75 205.7L459.575 205.7L459.575 205.7L459.575 178.675L459.575 178.675L398.75 178.675z" /></clipPath><clipPath id="30"><path id="" clip-rule="evenodd" transform="matrix(1 0 0 1 0 0)" d="M398.75 205.7L459.575 205.7L459.575 205.7L459.575 178.675L459.575 178.675L398.75 178.675z" /></clipPath><clipPath id="31"><path id="" clip-rule="evenodd" transform="matrix(1 0 0 1 0 0)" d="M398.75 205.7L459.575 205.7L459.575 205.7L459.575 178.675L459.575 178.675L398.75 178.675z" /></clipPath><clipPath id="32"><path id="" clip-rule="evenodd" transform="matrix(1 0 0 1 0 0)" d="M459.58 205.7L539.905 205.7L539.905 205.7L539.905 178.675L539.905 178.675L459.58 178.675z" /></clipPath><clipPath id="33"><path id="" clip-rule="evenodd" transform="matrix(1 0 0 1 0 0)" d="M459.58 205.7L539.905 205.7L539.905 205.7L539.905 178.675L539.905 178.675L459.58 178.675z" /></clipPath><clipPath id="34"><path id="" clip-rule="evenodd" transform="matrix(1 0 0 1 0 0)" d="M459.58 205.7L539.905 205.7L539.905 205.7L539.905 178.675L539.905 178.675L459.58 178.675z" /></clipPath><clipPath id="35"><path id="" clip-rule="evenodd" transform="matrix(1 0 0 1 0 0)" d="M459.58 205.7L539.905 205.7L539.905 205.7L539.905 178.675L539.905 178.675L459.58 178.675z" /></clipPath><clipPath id="36"><path id="" clip-rule="evenodd" transform="matrix(1 0 0 1 0 0)" d="M72.85 313.8L249.3 313.8L249.3 313.8L249.3 205.7L249.3 205.7L72.85 205.7z" /></clipPath><clipPath id="37"><path id="" clip-rule="evenodd" transform="matrix(1 0 0 1 0 0)" d="M72.85 313.8L249.3 313.8L249.3 313.8L249.3 205.7L249.3 205.7L72.85 205.7z" /></clipPath><clipPath id="38"><path id="" clip-rule="evenodd" transform="matrix(1 0 0 1 0 0)" d="M72.85 313.8L249.3 313.8L249.3 313.8L249.3 205.7L249.3 205.7L72.85 205.7z" /></clipPath><clipPath id="39"><path id="" clip-rule="evenodd" transform="matrix(1 0 0 1 0 0)" d="M72.85 313.8L249.3 313.8L249.3 313.8L249.3 205.7L249.3 205.7L72.85 205.7z" /></clipPath><clipPath id="40"><path id="" clip-rule="evenodd" transform="matrix(1 0 0 1 0 0)" d="M72.85 313.8L249.3 313.8L249.3 313.8L249.3 205.7L249.3 205.7L72.85 205.7z" /></clipPath><clipPath id="41"><path id="" clip-rule="evenodd" transform="matrix(1 0 0 1 0 0)" d="M72.85 313.8L249.3 313.8L249.3 313.8L249.3 205.7L249.3 205.7L72.85 205.7z" /></clipPath><clipPath id="42"><path id="" clip-rule="evenodd" transform="matrix(1 0 0 1 0 0)" d="M72.85 313.8L249.3 313.8L249.3 313.8L249.3 205.7L249.3 205.7L72.85 205.7z" /></clipPath><clipPath id="43"><path id="" clip-rule="evenodd" transform="matrix(1 0 0 1 0 0)" d="M72.85 313.8L249.3 313.8L249.3 313.8L249.3 205.7L249.3 205.7L72.85 205.7z" /></clipPath><clipPath id="44"><path id="" clip-rule="evenodd" transform="matrix(1 0 0 1 0 0)" d="M72.85 313.8L249.3 313.8L249.3 313.8L249.3 205.7L249.3 205.7L72.85 205.7z" /></clipPath><clipPath id="45"><path id="" clip-rule="evenodd" transform="matrix(1 0 0 1 0 0)" d="M72.85 313.8L249.3 313.8L249.3 313.8L249.3 205.7L249.3 205.7L72.85 205.7z" /></clipPath><clipPath id="46"><path id="" clip-rule="evenodd" transform="matrix(1 0 0 1 0 0)" d="M72.85 313.8L249.3 313.8L249.3 313.8L249.3 205.7L249.3 205.7L72.85 205.7z" /></clipPath><clipPath id="47"><path id="" clip-rule="evenodd" transform="matrix(1 0 0 1 0 0)" d="M72.85 313.8L249.3 313.8L249.3 313.8L249.3 205.7L249.3 205.7L72.85 205.7z" /></clipPath><clipPath id="48"><path id="" clip-rule="evenodd" transform="matrix(1 0 0 1 0 0)" d="M250.05 313.8L539.9 313.8L539.9 313.8L539.9 205.7L539.9 205.7L250.05 205.7z" /></clipPath><clipPath id="49"><path id="" clip-rule="evenodd" transform="matrix(1 0 0 1 0 0)" d="M250.05 313.8L539.9 313.8L539.9 313.8L539.9 205.7L539.9 205.7L250.05 205.7z" /></clipPath><clipPath id="50"><path id="" clip-rule="evenodd" transform="matrix(1 0 0 1 0 0)" d="M250.05 313.8L539.9 313.8L539.9 313.8L539.9 205.7L539.9 205.7L250.05 205.7z" /></clipPath><clipPath id="51"><path id="" clip-rule="evenodd" transform="matrix(1 0 0 1 0 0)" d="M250.05 313.8L539.9 313.8L539.9 313.8L539.9 205.7L539.9 205.7L250.05 205.7z" /></clipPath><clipPath id="52"><path id="" clip-rule="evenodd" transform="matrix(1 0 0 1 0 0)" d="M72.85 394.88L539.9 394.88L539.9 394.88L539.9 313.805L539.9 313.805L72.85 313.805z" /></clipPath><clipPath id="53"><path id="" clip-rule="evenodd" transform="matrix(1 0 0 1 0 0)" d="M72.85 394.87L539.9 394.87L539.9 394.87L539.9 313.795L539.9 313.795L72.85 313.795z" /></clipPath><clipPath id="54"><path id="" clip-rule="evenodd" transform="matrix(1 0 0 1 0 0)" d="M72.85 394.87L539.9 394.87L539.9 394.87L539.9 313.795L539.9 313.795L72.85 313.795z" /></clipPath><clipPath id="55"><path id="" clip-rule="evenodd" transform="matrix(1 0 0 1 0 0)" d="M72.85 394.87L539.9 394.87L539.9 394.87L539.9 313.795L539.9 313.795L72.85 313.795z" /></clipPath><clipPath id="56"><path id="" clip-rule="evenodd" transform="matrix(1 0 0 1 0 0)" d="M72.85 394.87L539.9 394.87L539.9 394.87L539.9 313.795L539.9 313.795L72.85 313.795z" /></clipPath><clipPath id="57"><path id="" clip-rule="evenodd" transform="matrix(1 0 0 1 0 0)" d="M72.85 394.87L539.9 394.87L539.9 394.87L539.9 313.795L539.9 313.795L72.85 313.795z" /></clipPath><clipPath id="58"><path id="" clip-rule="evenodd" transform="matrix(1 0 0 1 0 0)" d="M72.85 394.87L539.9 394.87L539.9 394.87L539.9 313.795L539.9 313.795L72.85 313.795z" /></clipPath><clipPath id="59"><path id="" clip-rule="evenodd" transform="matrix(1 0 0 1 0 0)" d="M72.85 394.87L539.9 394.87L539.9 394.87L539.9 313.795L539.9 313.795L72.85 313.795z" /></clipPath><clipPath id="60"><path id="" clip-rule="evenodd" transform="matrix(1 0 0 1 0 0)" d="M72.85 394.87L539.9 394.87L539.9 394.87L539.9 313.795L539.9 313.795L72.85 313.795z" /></clipPath><clipPath id="61"><path id="" clip-rule="evenodd" transform="matrix(1 0 0 1 0 0)" d="M72.85 394.87L539.9 394.87L539.9 394.87L539.9 313.795L539.9 313.795L72.85 313.795z" /></clipPath><clipPath id="62"><path id="" clip-rule="evenodd" transform="matrix(1 0 0 1 0 0)" d="M72.85 394.87L539.9 394.87L539.9 394.87L539.9 313.795L539.9 313.795L72.85 313.795z" /></clipPath><clipPath id="63"><path id="" clip-rule="evenodd" transform="matrix(1 0 0 1 0 0)" d="M72.85 516.48L539.9 516.48L539.9 516.48L539.9 394.88L539.9 394.88L72.85 394.88z" /></clipPath><clipPath id="64"><path id="" clip-rule="evenodd" transform="matrix(1 0 0 1 0 0)" d="M72.85 516.48L539.9 516.48L539.9 516.48L539.9 394.88L539.9 394.88L72.85 394.88z" /></clipPath><clipPath id="65"><path id="" clip-rule="evenodd" transform="matrix(1 0 0 1 0 0)" d="M72.85 516.48L539.9 516.48L539.9 516.48L539.9 394.88L539.9 394.88L72.85 394.88z" /></clipPath><clipPath id="66"><path id="" clip-rule="evenodd" transform="matrix(1 0 0 1 0 0)" d="M72.85 516.48L539.9 516.48L539.9 516.48L539.9 394.88L539.9 394.88L72.85 394.88z" /></clipPath><clipPath id="67"><path id="" clip-rule="evenodd" transform="matrix(1 0 0 1 0 0)" d="M72.85 516.48L539.9 516.48L539.9 516.48L539.9 394.88L539.9 394.88L72.85 394.88z" /></clipPath><clipPath id="68"><path id="" clip-rule="evenodd" transform="matrix(1 0 0 1 0 0)" d="M72.85 516.48L539.9 516.48L539.9 516.48L539.9 394.88L539.9 394.88L72.85 394.88z" /></clipPath><clipPath id="69"><path id="" clip-rule="evenodd" transform="matrix(1 0 0 1 0 0)" d="M72.85 516.48L539.9 516.48L539.9 516.48L539.9 394.88L539.9 394.88L72.85 394.88z" /></clipPath><clipPath id="70"><path id="" clip-rule="evenodd" transform="matrix(1 0 0 1 0 0)" d="M72.85 516.48L539.9 516.48L539.9 516.48L539.9 394.88L539.9 394.88L72.85 394.88z" /></clipPath><clipPath id="71"><path id="" clip-rule="evenodd" transform="matrix(1 0 0 1 0 0)" d="M72.85 516.48L539.9 516.48L539.9 516.48L539.9 394.88L539.9 394.88L72.85 394.88z" /></clipPath><clipPath id="72"><path id="" clip-rule="evenodd" transform="matrix(1 0 0 1 0 0)" d="M72.85 516.48L539.9 516.48L539.9 516.48L539.9 394.88L539.9 394.88L72.85 394.88z" /></clipPath><clipPath id="73"><path id="" clip-rule="evenodd" transform="matrix(1 0 0 1 0 0)" d="M72.85 516.48L539.9 516.48L539.9 516.48L539.9 394.88L539.9 394.88L72.85 394.88z" /></clipPath><clipPath id="74"><path id="" clip-rule="evenodd" transform="matrix(1 0 0 1 0 0)" d="M72.85 661.37L539.9 661.37L539.9 661.37L539.9 516.47L539.9 516.47L72.85 516.47z" /></clipPath><clipPath id="75"><path id="" clip-rule="evenodd" transform="matrix(1 0 0 1 0 0)" d="M72.85 661.37L539.9 661.37L539.9 661.37L539.9 516.47L539.9 516.47L72.85 516.47z" /></clipPath><clipPath id="76"><path id="" clip-rule="evenodd" transform="matrix(1 0 0 1 0 0)" d="M72.85 661.37L539.9 661.37L539.9 661.37L539.9 516.47L539.9 516.47L72.85 516.47z" /></clipPath><clipPath id="77"><path id="" clip-rule="evenodd" transform="matrix(1 0 0 1 0 0)" d="M72.85 661.37L539.9 661.37L539.9 661.37L539.9 516.47L539.9 516.47L72.85 516.47z" /></clipPath><clipPath id="78"><path id="" clip-rule="evenodd" transform="matrix(1 0 0 1 0 0)" d="M72.85 661.37L539.9 661.37L539.9 661.37L539.9 516.47L539.9 516.47L72.85 516.47z" /></clipPath><clipPath id="79"><path id="" clip-rule="evenodd" transform="matrix(1 0 0 1 0 0)" d="M9.12E-06 792L612 792L612 792L612 0L612 0L9.12E-06 0z" /></clipPath><clipPath id="80"><path id="" clip-rule="evenodd" transform="matrix(1 0 0 1 0 0)" d="M76 143.4L145.995 143.4L145.995 143.4L145.995 75L145.995 75L76 75z" /></clipPath></defs><g transform="matrix(1.333333 0 0 1.333333 0 0)"><g clip-path="url(#1)"><g clip-path="url(#2)"><g clip-path="url(#3)"></g><g clip-path="url(#4)"></g><g clip-path="url(#5)"></g><g clip-path="url(#6)"></g><g clip-path="url(#7)"></g><g clip-path="url(#8)"></g><g clip-path="url(#9)"></g></g><path id="92" transform="matrix(1 0 0 -1 0 792)" d="M71.35 719.17L72.1 719.17L72.1 719.17L72.1 719.92L72.1 719.92L71.35 719.92z" stroke="none" fill="#000000" fill-rule="evenodd" /><path id="93" transform="matrix(1 0 0 -1 0 792)" d="M71.35 719.17L72.1 719.17L72.1 719.17L72.1 719.92L72.1 719.92L71.35 719.92z" stroke="none" fill="#000000" fill-rule="evenodd" /><path id="94" transform="matrix(1 0 0 -1 0 792)" d="M72.1 719.17L539.9 719.17L539.9 719.17L539.9 719.92L539.9 719.92L72.1 719.92z" stroke="none" fill="#000000" fill-rule="evenodd" /><path id="95" transform="matrix(1 0 0 -1 0 792)" d="M539.9 719.17L540.65 719.17L540.65 719.17L540.65 719.92L540.65 719.92L539.9 719.92z" stroke="none" fill="#000000" fill-rule="evenodd" /><path id="96" transform="matrix(1 0 0 -1 0 792)" d="M539.9 719.17L540.65 719.17L540.65 719.17L540.65 719.92L540.65 719.92L539.9 719.92z" stroke="none" fill="#000000" fill-rule="evenodd" /><path id="97" transform="matrix(1 0 0 -1 0 792)" d="M71.35 641.1L72.1 641.1L72.1 641.1L72.1 719.175L72.1 719.175L71.35 719.175z" stroke="none" fill="#000000" fill-rule="evenodd" /><path id="98" transform="matrix(1 0 0 -1 0 792)" d="M539.9 641.1L540.65 641.1L540.65 641.1L540.65 719.175L540.65 719.175L539.9 719.175z" stroke="none" fill="#000000" fill-rule="evenodd" /><g clip-path="url(#10)"><g clip-path="url(#11)"></g><g clip-path="url(#12)"></g><g clip-path="url(#13)"></g><g clip-path="url(#14)"></g></g><g clip-path="url(#15)"><g clip-path="url(#16)"></g><g clip-path="url(#17)"></g><g clip-path="url(#18)"></g></g><path id="112" transform="matrix(1 0 0 -1 0 792)" d="M71.35 640.35L72.1 640.35L72.1 640.35L72.1 641.1L72.1 641.1L71.35 641.1z" stroke="none" fill="#000000" fill-rule="evenodd" /><path id="113" transform="matrix(1 0 0 -1 0 792)" d="M72.1 640.35L248.55 640.35L248.55 640.35L248.55 641.1L248.55 641.1L72.1 641.1z" stroke="none" fill="#000000" fill-rule="evenodd" /><path id="114" transform="matrix(1 0 0 -1 0 792)" d="M248.55 640.35L249.3 640.35L249.3 640.35L249.3 641.1L249.3 641.1L248.55 641.1z" stroke="none" fill="#000000" fill-rule="evenodd" /><path id="115" transform="matrix(1 0 0 -1 0 792)" d="M249.3 640.35L539.9 640.35L539.9 640.35L539.9 641.1L539.9 641.1L249.3 641.1z" stroke="none" fill="#000000" fill-rule="evenodd" /><path id="116" transform="matrix(1 0 0 -1 0 792)" d="M539.9 640.35L540.65 640.35L540.65 640.35L540.65 641.1L540.65 641.1L539.9 641.1z" stroke="none" fill="#000000" fill-rule="evenodd" /><path id="117" transform="matrix(1 0 0 -1 0 792)" d="M71.35 614.07L72.1 614.07L72.1 614.07L72.1 640.345L72.1 640.345L71.35 640.345z" stroke="none" fill="#000000" fill-rule="evenodd" /><path id="118" transform="matrix(1 0 0 -1 0 792)" d="M248.55 614.07L249.3 614.07L249.3 614.07L249.3 640.345L249.3 640.345L248.55 640.345z" stroke="none" fill="#000000" fill-rule="evenodd" /><path id="119" transform="matrix(1 0 0 -1 0 792)" d="M539.9 614.07L540.65 614.07L540.65 614.07L540.65 640.345L540.65 640.345L539.9 640.345z" stroke="none" fill="#000000" fill-rule="evenodd" /><g clip-path="url(#19)"><g clip-path="url(#20)"></g><g clip-path="url(#21)"></g><g clip-path="url(#22)"></g></g><g clip-path="url(#23)"><g clip-path="url(#24)"></g><g clip-path="url(#25)"></g><g clip-path="url(#26)"></g></g><g clip-path="url(#27)"><g clip-path="url(#28)"></g><g clip-path="url(#29)"></g><g clip-path="url(#30)"></g><g clip-path="url(#31)"></g></g><g clip-path="url(#32)"><g clip-path="url(#33)"></g><g clip-path="url(#34)"></g><g clip-path="url(#35)"></g></g><path id="159" transform="matrix(1 0 0 -1 0 792)" d="M71.35 613.33L72.1 613.33L72.1 613.33L72.1 614.08L72.1 614.08L71.35 614.08z" stroke="none" fill="#000000" fill-rule="evenodd" /><path id="160" transform="matrix(1 0 0 -1 0 792)" d="M72.1 613.33L248.55 613.33L248.55 613.33L248.55 614.08L248.55 614.08L72.1 614.08z" stroke="none" fill="#000000" fill-rule="evenodd" /><path id="161" transform="matrix(1 0 0 -1 0 792)" d="M248.55 613.33L249.3 613.33L249.3 613.33L249.3 614.08L249.3 614.08L248.55 614.08z" stroke="none" fill="#000000" fill-rule="evenodd" /><path id="162" transform="matrix(1 0 0 -1 0 792)" d="M249.3 613.33L397.98 613.33L397.98 613.33L397.98 614.08L397.98 614.08L249.3 614.08z" stroke="none" fill="#000000" fill-rule="evenodd" /><path id="163" transform="matrix(1 0 0 -1 0 792)" d="M397.98 613.33L398.755 613.33L398.755 613.33L398.755 614.08L398.755 614.08L397.98 614.08z" stroke="none" fill="#000000" fill-rule="evenodd" /><path id="164" transform="matrix(1 0 0 -1 0 792)" d="M398.75 613.33L458.8 613.33L458.8 613.33L458.8 614.08L458.8 614.08L398.75 614.08z" stroke="none" fill="#000000" fill-rule="evenodd" /><path id="165" transform="matrix(1 0 0 -1 0 792)" d="M458.8 613.33L459.575 613.33L459.575 613.33L459.575 614.08L459.575 614.08L458.8 614.08z" stroke="none" fill="#000000" fill-rule="evenodd" /><path id="166" transform="matrix(1 0 0 -1 0 792)" d="M459.58 613.33L539.905 613.33L539.905 613.33L539.905 614.08L539.905 614.08L459.58 614.08z" stroke="none" fill="#000000" fill-rule="evenodd" /><path id="167" transform="matrix(1 0 0 -1 0 792)" d="M539.9 613.33L540.65 613.33L540.65 613.33L540.65 614.08L540.65 614.08L539.9 614.08z" stroke="none" fill="#000000" fill-rule="evenodd" /><path id="168" transform="matrix(1 0 0 -1 0 792)" d="M71.35 586.3L72.1 586.3L72.1 586.3L72.1 613.325L72.1 613.325L71.35 613.325z" stroke="none" fill="#000000" fill-rule="evenodd" /><path id="169" transform="matrix(1 0 0 -1 0 792)" d="M248.55 586.3L249.3 586.3L249.3 586.3L249.3 613.325L249.3 613.325L248.55 613.325z" stroke="none" fill="#000000" fill-rule="evenodd" /><path id="170" transform="matrix(1 0 0 -1 0 792)" d="M397.98 586.3L398.755 586.3L398.755 586.3L398.755 613.325L398.755 613.325L397.98 613.325z" stroke="none" fill="#000000" fill-rule="evenodd" /><path id="171" transform="matrix(1 0 0 -1 0 792)" d="M458.8 586.3L459.575 586.3L459.575 586.3L459.575 613.325L459.575 613.325L458.8 613.325z" stroke="none" fill="#000000" fill-rule="evenodd" /><path id="172" transform="matrix(1 0 0 -1 0 792)" d="M539.9 586.3L540.65 586.3L540.65 586.3L540.65 613.325L540.65 613.325L539.9 613.325z" stroke="none" fill="#000000" fill-rule="evenodd" /><g clip-path="url(#36)"><g clip-path="url(#37)"></g><g clip-path="url(#38)"></g><g clip-path="url(#39)"></g><g clip-path="url(#40)"></g><g clip-path="url(#41)"></g><g clip-path="url(#42)"></g><g clip-path="url(#43)"></g><g clip-path="url(#44)"></g><g clip-path="url(#45)"></g><g clip-path="url(#46)"></g><g clip-path="url(#47)"></g></g><g clip-path="url(#48)"><g clip-path="url(#49)"></g><g clip-path="url(#50)"></g><g clip-path="url(#51)"></g></g><path id="208" transform="matrix(1 0 0 -1 0 792)" d="M71.35 585.55L72.1 585.55L72.1 585.55L72.1 586.3L72.1 586.3L71.35 586.3z" stroke="none" fill="#000000" fill-rule="evenodd" /><path id="209" transform="matrix(1 0 0 -1 0 792)" d="M72.1 585.55L248.55 585.55L248.55 585.55L248.55 586.3L248.55 586.3L72.1 586.3z" stroke="none" fill="#000000" fill-rule="evenodd" /><path id="210" transform="matrix(1 0 0 -1 0 792)" d="M248.55 585.55L249.3 585.55L249.3 585.55L249.3 586.3L249.3 586.3L248.55 586.3z" stroke="none" fill="#000000" fill-rule="evenodd" /><path id="211" transform="matrix(1 0 0 -1 0 792)" d="M249.3 585.55L397.98 585.55L397.98 585.55L397.98 586.3L397.98 586.3L249.3 586.3z" stroke="none" fill="#000000" fill-rule="evenodd" /><path id="212" transform="matrix(1 0 0 -1 0 792)" d="M397.98 585.55L398.755 585.55L398.755 585.55L398.755 586.3L398.755 586.3L397.98 586.3z" stroke="none" fill="#000000" fill-rule="evenodd" /><path id="213" transform="matrix(1 0 0 -1 0 792)" d="M398.75 585.55L458.8 585.55L458.8 585.55L458.8 586.3L458.8 586.3L398.75 586.3z" stroke="none" fill="#000000" fill-rule="evenodd" /><path id="214" transform="matrix(1 0 0 -1 0 792)" d="M458.8 585.55L459.575 585.55L459.575 585.55L459.575 586.3L459.575 586.3L458.8 586.3z" stroke="none" fill="#000000" fill-rule="evenodd" /><path id="215" transform="matrix(1 0 0 -1 0 792)" d="M459.58 585.55L539.905 585.55L539.905 585.55L539.905 586.3L539.905 586.3L459.58 586.3z" stroke="none" fill="#000000" fill-rule="evenodd" /><path id="216" transform="matrix(1 0 0 -1 0 792)" d="M539.9 585.55L540.65 585.55L540.65 585.55L540.65 586.3L540.65 586.3L539.9 586.3z" stroke="none" fill="#000000" fill-rule="evenodd" /><path id="217" transform="matrix(1 0 0 -1 0 792)" d="M71.35 478.2L72.1 478.2L72.1 478.2L72.1 585.55L72.1 585.55L71.35 585.55z" stroke="none" fill="#000000" fill-rule="evenodd" /><path id="218" transform="matrix(1 0 0 -1 0 792)" d="M248.55 478.2L249.3 478.2L249.3 478.2L249.3 585.55L249.3 585.55L248.55 585.55z" stroke="none" fill="#000000" fill-rule="evenodd" /><path id="219" transform="matrix(1 0 0 -1 0 792)" d="M539.9 478.2L540.65 478.2L540.65 478.2L540.65 585.55L540.65 585.55L539.9 585.55z" stroke="none" fill="#000000" fill-rule="evenodd" /><g clip-path="url(#52)"><g clip-path="url(#53)"></g><g clip-path="url(#54)"></g><g clip-path="url(#55)"></g><g clip-path="url(#56)"></g><g clip-path="url(#57)"></g><g clip-path="url(#58)"></g><g clip-path="url(#59)"></g><g clip-path="url(#60)"></g><g clip-path="url(#61)"></g><g clip-path="url(#62)"></g></g><path id="230" transform="matrix(1 0 0 -1 0 792)" d="M71.35 477.45L72.1 477.45L72.1 477.45L72.1 478.2L72.1 478.2L71.35 478.2z" stroke="none" fill="#000000" fill-rule="evenodd" /><path id="231" transform="matrix(1 0 0 -1 0 792)" d="M72.1 477.45L248.55 477.45L248.55 477.45L248.55 478.2L248.55 478.2L72.1 478.2z" stroke="none" fill="#000000" fill-rule="evenodd" /><path id="232" transform="matrix(1 0 0 -1 0 792)" d="M248.55 477.45L249.3 477.45L249.3 477.45L249.3 478.2L249.3 478.2L248.55 478.2z" stroke="none" fill="#000000" fill-rule="evenodd" /><path id="233" transform="matrix(1 0 0 -1 0 792)" d="M249.3 477.45L539.9 477.45L539.9 477.45L539.9 478.2L539.9 478.2L249.3 478.2z" stroke="none" fill="#000000" fill-rule="evenodd" /><path id="234" transform="matrix(1 0 0 -1 0 792)" d="M539.9 477.45L540.65 477.45L540.65 477.45L540.65 478.2L540.65 478.2L539.9 478.2z" stroke="none" fill="#000000" fill-rule="evenodd" /><path id="235" transform="matrix(1 0 0 -1 0 792)" d="M71.35 397.13L72.1 397.13L72.1 397.13L72.1 477.455L72.1 477.455L71.35 477.455z" stroke="none" fill="#000000" fill-rule="evenodd" /><path id="236" transform="matrix(1 0 0 -1 0 792)" d="M539.9 397.13L540.65 397.13L540.65 397.13L540.65 477.455L540.65 477.455L539.9 477.455z" stroke="none" fill="#000000" fill-rule="evenodd" /><g clip-path="url(#63)"><g clip-path="url(#64)"></g><g clip-path="url(#65)"></g><g clip-path="url(#66)"></g><g clip-path="url(#67)"></g><g clip-path="url(#68)"></g><g clip-path="url(#69)"></g><g clip-path="url(#70)"></g><g clip-path="url(#71)"></g><g clip-path="url(#72)"></g><g clip-path="url(#73)"></g></g><path id="251" transform="matrix(1 0 0 -1 0 792)" d="M71.35 396.38L72.1 396.38L72.1 396.38L72.1 397.13L72.1 397.13L71.35 397.13z" stroke="none" fill="#000000" fill-rule="evenodd" /><path id="252" transform="matrix(1 0 0 -1 0 792)" d="M72.1 396.38L539.9 396.38L539.9 396.38L539.9 397.13L539.9 397.13L72.1 397.13z" stroke="none" fill="#000000" fill-rule="evenodd" /><path id="253" transform="matrix(1 0 0 -1 0 792)" d="M539.9 396.38L540.65 396.38L540.65 396.38L540.65 397.13L540.65 397.13L539.9 397.13z" stroke="none" fill="#000000" fill-rule="evenodd" /><path id="254" transform="matrix(1 0 0 -1 0 792)" d="M71.35 275.52L72.1 275.52L72.1 275.52L72.1 396.37L72.1 396.37L71.35 396.37z" stroke="none" fill="#000000" fill-rule="evenodd" /><path id="255" transform="matrix(1 0 0 -1 0 792)" d="M539.9 275.52L540.65 275.52L540.65 275.52L540.65 396.37L540.65 396.37L539.9 396.37z" stroke="none" fill="#000000" fill-rule="evenodd" /><g clip-path="url(#74)"><g clip-path="url(#75)"></g><g clip-path="url(#76)"></g><g clip-path="url(#77)"></g><g clip-path="url(#78)"></g></g><path id="267" transform="matrix(1 0 0 -1 0 792)" d="M71.35 274.77L72.1 274.77L72.1 274.77L72.1 275.52L72.1 275.52L71.35 275.52z" stroke="none" fill="#000000" fill-rule="evenodd" /><path id="268" transform="matrix(1 0 0 -1 0 792)" d="M72.1 274.77L539.9 274.77L539.9 274.77L539.9 275.52L539.9 275.52L72.1 275.52z" stroke="none" fill="#000000" fill-rule="evenodd" /><path id="269" transform="matrix(1 0 0 -1 0 792)" d="M539.9 274.77L540.65 274.77L540.65 274.77L540.65 275.52L540.65 275.52L539.9 275.52z" stroke="none" fill="#000000" fill-rule="evenodd" /><path id="270" transform="matrix(1 0 0 -1 0 792)" d="M71.35 131.38L72.1 131.38L72.1 131.38L72.1 274.78L72.1 274.78L71.35 274.78z" stroke="none" fill="#000000" fill-rule="evenodd" /><path id="271" transform="matrix(1 0 0 -1 0 792)" d="M71.35 130.63L72.1 130.63L72.1 130.63L72.1 131.38L72.1 131.38L71.35 131.38z" stroke="none" fill="#000000" fill-rule="evenodd" /><path id="272" transform="matrix(1 0 0 -1 0 792)" d="M71.35 130.63L72.1 130.63L72.1 130.63L72.1 131.38L72.1 131.38L71.35 131.38z" stroke="none" fill="#000000" fill-rule="evenodd" /><path id="273" transform="matrix(1 0 0 -1 0 792)" d="M72.1 130.63L539.9 130.63L539.9 130.63L539.9 131.38L539.9 131.38L72.1 131.38z" stroke="none" fill="#000000" fill-rule="evenodd" /><path id="274" transform="matrix(1 0 0 -1 0 792)" d="M539.9 131.38L540.65 131.38L540.65 131.38L540.65 274.78L540.65 274.78L539.9 274.78z" stroke="none" fill="#000000" fill-rule="evenodd" /><path id="275" transform="matrix(1 0 0 -1 0 792)" d="M539.9 130.63L540.65 130.63L540.65 130.63L540.65 131.38L540.65 131.38L539.9 131.38z" stroke="none" fill="#000000" fill-rule="evenodd" /><path id="276" transform="matrix(1 0 0 -1 0 792)" d="M539.9 130.63L540.65 130.63L540.65 130.63L540.65 131.38L540.65 131.38L539.9 131.38z" stroke="none" fill="#000000" fill-rule="evenodd" /><g clip-path="url(#79)"></g><g clip-path="url(#80)"><g transform="matrix(0.3270794 0 0 0.3272727 76 75)"><g transform="matrix(1 0 0 1 0 0)"><image x="0" y="0" xlink:href="img_01.png" width="214" height="209" /></g></g></g></g></g></svg>